<svg width="24" height="24" viewBox="0 0 24 24" fill="none" xmlns="http://www.w3.org/2000/svg">
<g clip-path="url(#clip0_83_427)">
<path d="M11.2432 0.227797C17.7455 -0.189713 23.356 4.74149 23.776 11.2436C24.1965 17.7457 19.2675 23.3581 12.7655 23.7811C6.25971 24.2044 0.643205 19.2719 0.222752 12.7659C-0.197757 6.25989 4.73702 0.645533 11.2432 0.227797Z" fill="#D0FD87"/>
<path d="M13.242 13.0345C13.6367 13.0218 14.0488 13.0362 14.38 13.2704C15.4774 14.0462 15.6077 15.8347 14.8861 16.9027C14.5597 17.3858 14.2524 17.5438 13.7115 17.6497C13.2522 17.678 12.8519 17.6816 12.4606 17.3856C11.072 16.3353 11.3146 13.3243 13.242 13.0345Z" fill="black"/>
<path d="M12.8995 13.5347C13.2714 13.521 13.6801 13.5332 14.0549 13.5366C15.12 14.432 15.2035 16.3183 14.017 17.1454C13.4898 17.1817 12.8178 17.2822 12.477 16.804C11.736 15.7639 11.9824 14.3383 12.8995 13.5347Z" fill="#D0FD87"/>
<path d="M8.35764 5.37045C9.55249 5.27711 9.38936 6.11015 9.38195 6.99832C9.82159 7.00205 11.6154 7.0496 10.9107 8.12773C10.66 8.51128 9.83636 8.48349 9.38551 8.48354C9.38534 8.85243 9.43617 9.42849 9.3074 9.7556C9.238 9.93187 9.08399 9.95417 8.90829 10.0255C8.86855 10.0272 8.82881 10.0287 8.78908 10.0299C7.74723 10.0604 7.95332 9.23898 7.96549 8.44896C7.54832 8.46487 7.09629 8.43803 6.67651 8.42224C6.42066 8.10062 6.13289 7.58309 6.53568 7.23475C6.93157 6.89247 7.47825 6.9716 7.96323 7.00619C7.95338 6.33549 7.83514 5.86443 8.35764 5.37045Z" fill="black"/>
<path d="M17.8154 5.4906C18.9117 5.41187 18.8453 6.23194 18.7276 7.06877C19.1293 7.07777 20.6564 7.09283 20.3857 8.01236C20.2177 8.58253 19.2805 8.55338 18.7498 8.54726C18.8071 9.07368 18.8871 9.7013 18.4501 10.0521C17.1884 10.2185 17.3799 9.514 17.3821 8.51783C16.841 8.54755 15.2253 8.51194 15.9613 7.38558C16.1958 7.02672 16.9648 7.06622 17.3886 7.07607C17.3713 6.45315 17.2325 5.85904 17.8154 5.4906Z" fill="black"/>
</g>
<defs>
<clipPath id="clip0_83_427">
<rect width="24" height="24" fill="white"/>
</clipPath>
</defs>
</svg>
