<svg width="628" height="166" viewBox="0 0 628 166" fill="none" xmlns="http://www.w3.org/2000/svg">
<path d="M77.4685 1.57429C122.269 -1.30235 160.925 32.6737 163.819 77.473C166.717 122.273 132.756 160.942 87.9572 163.856C43.1321 166.773 4.43439 132.788 1.53747 87.962C-1.35984 43.1354 32.6408 4.45249 77.4685 1.57429Z" fill="#D0FD87"/>
<path d="M91.2398 89.8114C93.9588 89.7237 96.7984 89.8231 99.0803 91.4366C106.641 96.7823 107.539 109.105 102.567 116.464C100.318 119.792 98.2009 120.88 94.4744 121.61C91.31 121.805 88.5519 121.83 85.8554 119.791C76.2883 112.554 77.9595 91.8082 91.2398 89.8114Z" fill="black"/>
<path d="M88.8791 93.2608C91.4414 93.166 94.2572 93.2503 96.8394 93.2737C104.178 99.4435 104.754 112.439 96.5785 118.138C92.946 118.389 88.3159 119.081 85.9681 115.786C80.8627 108.62 82.5599 98.7976 88.8791 93.2608Z" fill="#D0FD87"/>
<path d="M57.5867 37.0035C65.8192 36.3604 64.6953 42.1 64.6442 48.2195C67.6733 48.2452 80.0324 48.5728 75.1773 56.0012C73.45 58.6438 67.7751 58.4523 64.6687 58.4527C64.6676 60.9943 65.0178 64.9634 64.1305 67.2172C63.6524 68.4317 62.5912 68.5853 61.3807 69.0767C61.1069 69.0888 60.8331 69.0989 60.5593 69.1071C53.381 69.3173 54.801 63.6577 54.8848 58.2144C52.0105 58.324 48.896 58.1391 46.0037 58.0303C44.2409 55.8144 42.2582 52.2486 45.0334 49.8485C47.7611 47.4902 51.5277 48.0354 54.8692 48.2737C54.8013 43.6526 53.9866 40.407 57.5867 37.0035Z" fill="black"/>
<path d="M122.752 37.836C130.305 37.2935 129.848 42.9438 129.037 48.7096C131.805 48.7716 142.326 48.8753 140.461 55.2109C139.304 59.1393 132.846 58.9385 129.19 58.8964C129.585 62.5234 130.135 66.8477 127.125 69.2645C118.432 70.4115 119.751 65.5572 119.766 58.6936C116.038 58.8983 104.906 58.653 109.977 50.8924C111.593 48.4198 116.891 48.692 119.811 48.7599C119.692 44.4679 118.736 40.3745 122.752 37.836Z" fill="black"/>
<path d="M261.238 83.9338V72.0186H257.266V60.1033H249.322V72.0186H245.351V83.9338H241.379V87.9056H265.209V83.9338H261.238ZM225.492 119.68V107.764H229.464V95.8491H233.435V83.9338H237.407V72.0186H241.379V60.1033H245.351V52.1598H249.322V44.2162H257.266V52.1598H261.238V60.1033H265.209V72.0186H269.181V83.9338H273.153V95.8491H277.125V107.764H281.096V119.68H273.153V107.764H269.181V95.8491H237.407V107.764H233.435V119.68H225.492ZM304.969 115.708V111.736H324.827V107.764H328.799V103.793H332.771V79.9621H328.799V75.9903H324.827V72.0186H304.969V68.0468H308.94V64.075H328.799V68.0468H332.771V72.0186H336.743V75.9903H340.714V107.764H336.743V111.736H332.771V115.708H328.799V119.68H308.94V115.708H304.969ZM300.997 111.736V135.567H293.053V64.075H300.997V72.0186H304.969V79.9621H300.997V103.793H304.969V111.736H300.997ZM360.606 111.736V99.8209H356.634V87.9056H352.662V75.9903H348.691V64.075H356.634V75.9903H360.606V87.9056H364.578V99.8209H368.549V111.736H376.493V99.8209H380.465V87.9056H384.437V75.9903H388.408V64.075H396.352V75.9903H392.38V87.9056H388.408V99.8209H384.437V111.736H380.465V119.68H376.493V127.623H372.521V131.595H368.549V135.567H352.662V127.623H368.549V119.68H364.578V111.736H360.606ZM404.319 119.68V107.764H408.291V103.793H412.263V99.8209H416.234V95.8491H420.206V87.9056H416.234V83.9338H412.263V79.9621H408.291V75.9903H404.319V64.075H412.263V72.0186H416.234V75.9903H420.206V79.9621H424.178V87.9056H428.15V79.9621H432.121V75.9903H436.093V72.0186H440.065V64.075H448.008V75.9903H444.037V79.9621H440.065V83.9338H436.093V87.9056H432.121V95.8491H436.093V99.8209H440.065V103.793H444.037V107.764H448.008V119.68H440.065V111.736H436.093V103.793H428.15V95.8491H424.178V103.793H416.234V111.736H412.263V119.68H404.319ZM455.967 119.68V107.764H467.882V119.68H455.967ZM483.814 119.68V72.0186H475.87V64.075H483.814V52.1598H487.786V48.188H491.757V44.2162H507.644V52.1598H491.757V64.075H507.644V72.0186H491.757V119.68H483.814ZM519.547 111.736V64.075H527.491V107.764H531.463V111.736H547.35V115.708H543.378V119.68H527.491V115.708H523.519V111.736H519.547ZM551.321 119.68V111.736H547.35V107.764H551.321V64.075H559.265V119.68H551.321ZM575.176 119.68V64.075H583.119V72.0186H587.091V75.9903H583.119V119.68H575.176ZM610.922 119.68V75.9903H606.95V72.0186H587.091V68.0468H591.063V64.075H610.922V68.0468H614.893V72.0186H618.865V119.68H610.922Z" fill="white"/>
</svg>
