<svg width="177" height="24" viewBox="0 0 177 24" fill="none" xmlns="http://www.w3.org/2000/svg">
<g clip-path="url(#clip0_83_444)">
<g clip-path="url(#clip1_83_444)">
<path d="M11.2437 0.228773C17.746 -0.188736 23.3565 4.74247 23.7765 11.2445C24.197 17.7467 19.268 23.3591 12.766 23.7821C6.2602 24.2053 0.643693 19.2729 0.223241 12.7669C-0.197269 6.26087 4.7375 0.646509 11.2437 0.228773Z" fill="#A8DF49"/>
<path d="M13.2425 13.0355C13.6372 13.0227 14.0493 13.0372 14.3805 13.2713C15.4779 14.0472 15.6082 15.8357 14.8866 16.9037C14.5602 17.3868 14.2528 17.5448 13.712 17.6507C13.2527 17.679 12.8524 17.6826 12.4611 17.3866C11.0725 16.3363 11.3151 13.3253 13.2425 13.0355Z" fill="black"/>
<path d="M12.8995 13.5357C13.2714 13.5219 13.6801 13.5342 14.0549 13.5376C15.12 14.433 15.2035 16.3192 14.017 17.1463C13.4898 17.1827 12.8178 17.2832 12.477 16.8049C11.736 15.7649 11.9824 14.3393 12.8995 13.5357Z" fill="#A8DF49"/>
<path d="M8.35813 5.37045C9.55298 5.27711 9.38985 6.11015 9.38243 6.99832C9.82208 7.00205 11.6158 7.0496 10.9112 8.12773C10.6605 8.51128 9.83685 8.48349 9.386 8.48354C9.38583 8.85243 9.43666 9.42849 9.30789 9.7556C9.23849 9.93187 9.08447 9.95417 8.90878 10.0255C8.86904 10.0272 8.8293 10.0287 8.78957 10.0299C7.74772 10.0604 7.95381 9.23898 7.96598 8.44896C7.54881 8.46487 7.09677 8.43803 6.677 8.42224C6.42115 8.10062 6.13338 7.58309 6.53617 7.23475C6.93206 6.89247 7.47874 6.9716 7.96372 7.00619C7.95387 6.33549 7.83562 5.86443 8.35813 5.37045Z" fill="black"/>
<path d="M17.8159 5.49158C18.9122 5.41284 18.8458 6.23292 18.7281 7.06975C19.1298 7.07875 20.6569 7.09381 20.3861 8.01333C20.2182 8.5835 19.281 8.55435 18.7503 8.54824C18.8076 9.07466 18.8876 9.70228 18.4506 10.0531C17.1889 10.2195 17.3804 9.51498 17.3826 8.51881C16.8414 8.54852 15.2257 8.51292 15.9618 7.38656C16.1963 7.02769 16.9653 7.0672 17.3891 7.07705C17.3718 6.45413 17.233 5.86001 17.8159 5.49158Z" fill="black"/>
</g>
<path d="M40.2204 12.766V9.688H39.1944V6.61H37.1424V9.688H36.1164V12.766H35.0904V13.792H41.2464V12.766H40.2204ZM30.9864 22V18.922H32.0124V15.844H33.0384V12.766H34.0644V9.688H35.0904V6.61H36.1164V4.558H37.1424V2.506H39.1944V4.558H40.2204V6.61H41.2464V9.688H42.2725V12.766H43.2984V15.844H44.3244V18.922H45.3505V22H43.2984V18.922H42.2725V15.844H34.0644V18.922H33.0384V22H30.9864ZM51.5172 20.974V19.948H56.6472V18.922H57.6732V17.896H58.6992V11.74H57.6732V10.714H56.6472V9.688H51.5172V8.662H52.5432V7.636H57.6732V8.662H58.6992V9.688H59.7252V10.714H60.7512V18.922H59.7252V19.948H58.6992V20.974H57.6732V22H52.5432V20.974H51.5172ZM50.4912 19.948V26.104H48.4392V7.636H50.4912V9.688H51.5172V11.74H50.4912V17.896H51.5172V19.948H50.4912ZM65.8896 19.948V16.87H64.8636V13.792H63.8376V10.714H62.8116V7.636H64.8636V10.714H65.8896V13.792H66.9156V16.87H67.9416V19.948H69.9936V16.87H71.0196V13.792H72.0456V10.714H73.0716V7.636H75.1236V10.714H74.0976V13.792H73.0716V16.87H72.0456V19.948H71.0196V22H69.9936V24.052H68.9676V25.078H67.9416V26.104H63.8376V24.052H67.9416V22H66.9156V19.948H65.8896ZM77.1818 22V18.922H78.2078V17.896H79.2338V16.87H80.2598V15.844H81.2858V13.792H80.2598V12.766H79.2338V11.74H78.2078V10.714H77.1818V7.636H79.2338V9.688H80.2598V10.714H81.2858V11.74H82.3118V13.792H83.3378V11.74H84.3638V10.714H85.3898V9.688H86.4158V7.636H88.4678V10.714H87.4418V11.74H86.4158V12.766H85.3898V13.792H84.3638V15.844H85.3898V16.87H86.4158V17.896H87.4418V18.922H88.4678V22H86.4158V19.948H85.3898V17.896H83.3378V15.844H82.3118V17.896H80.2598V19.948H79.2338V22H77.1818ZM90.5236 22V18.922H93.6016V22H90.5236ZM97.7172 22V9.688H95.6652V7.636H97.7172V4.558H98.7432V3.532H99.7692V2.506H103.873V4.558H99.7692V7.636H103.873V9.688H99.7692V22H97.7172ZM106.948 19.948V7.636H109V18.922H110.026V19.948H114.13V20.974H113.104V22H109V20.974H107.974V19.948H106.948ZM115.156 22V19.948H114.13V18.922H115.156V7.636H117.208V22H115.156ZM121.318 22V7.636H123.37V9.688H124.396V10.714H123.37V22H121.318ZM130.552 22V10.714H129.526V9.688H124.396V8.662H125.422V7.636H130.552V8.662H131.578V9.688H132.604V22H130.552Z" fill="#0A0A0A"/>
</g>
<defs>
<clipPath id="clip0_83_444">
<rect width="177" height="24" fill="white"/>
</clipPath>
<clipPath id="clip1_83_444">
<rect width="24" height="24" fill="white"/>
</clipPath>
</defs>
</svg>
