<svg width="721" height="167" viewBox="0 0 721 167" fill="none" xmlns="http://www.w3.org/2000/svg">
<path d="M77.4685 2.3946C122.269 -0.482042 160.925 33.494 163.819 78.2933C166.717 123.093 132.756 161.762 87.9572 164.677C43.1321 167.593 4.43439 133.609 1.53747 88.7823C-1.35984 43.9557 32.6408 5.2728 77.4685 2.3946Z" fill="#A8DF49"/>
<path d="M91.2398 90.6318C93.9588 90.544 96.7984 90.6435 99.0803 92.2569C106.641 97.6026 107.539 109.925 102.567 117.284C100.318 120.612 98.2009 121.701 94.4744 122.43C91.31 122.626 88.5519 122.65 85.8554 120.611C76.2883 113.375 77.9595 92.6286 91.2398 90.6318Z" fill="black"/>
<path d="M88.8791 94.0811C91.4414 93.9864 94.2572 94.0706 96.8394 94.094C104.178 100.264 104.754 113.26 96.5785 118.958C92.946 119.209 88.3159 119.901 85.9681 116.606C80.8627 109.44 82.5599 99.618 88.8791 94.0811Z" fill="#A8DF49"/>
<path d="M57.5867 37.8238C65.8192 37.1807 64.6953 42.9203 64.6442 49.0398C67.6733 49.0655 80.0324 49.3932 75.1773 56.8215C73.45 59.4641 67.7751 59.2726 64.6687 59.273C64.6676 61.8147 65.0178 65.7837 64.1305 68.0375C63.6524 69.252 62.5912 69.4056 61.3807 69.897C61.1069 69.9091 60.8331 69.9193 60.5593 69.9274C53.381 70.1377 54.801 64.478 54.8848 59.0347C52.0105 59.1443 48.896 58.9595 46.0037 58.8507C44.2409 56.6347 42.2582 53.0689 45.0334 50.6688C47.7611 48.3105 51.5277 48.8557 54.8692 49.094C54.8013 44.4729 53.9866 41.2273 57.5867 37.8238Z" fill="black"/>
<path d="M122.752 38.6563C130.305 38.1138 129.848 43.7641 129.037 49.5299C131.805 49.5919 142.326 49.6956 140.461 56.0312C139.304 59.9597 132.846 59.7588 129.19 59.7167C129.585 63.3437 130.135 67.668 127.125 70.0848C118.432 71.2318 119.751 66.3775 119.766 59.5139C116.038 59.7186 104.906 59.4733 109.977 51.7127C111.593 49.2401 116.891 49.5123 119.811 49.5802C119.692 45.2882 118.736 41.1948 122.752 38.6563Z" fill="black"/>
<path d="M270.358 85.0462V70.3949H265.474V55.7436H255.706V70.3949H250.823V85.0462H245.939V89.9299H275.241V85.0462H270.358ZM226.404 129V114.349H231.288V99.6974H236.171V85.0462H241.055V70.3949H245.939V55.7436H250.823V45.9761H255.706V36.2085H265.474V45.9761H270.358V55.7436H275.241V70.3949H280.125V85.0462H285.009V99.6974H289.893V114.349H294.776V129H285.009V114.349H280.125V99.6974H241.055V114.349H236.171V129H226.404ZM324.13 124.116V119.232H348.549V114.349H353.433V109.465H358.317V80.1624H353.433V75.2786H348.549V70.3949H324.13V65.5111H329.014V60.6274H353.433V65.5111H358.317V70.3949H363.2V75.2786H368.084V114.349H363.2V119.232H358.317V124.116H353.433V129H329.014V124.116H324.13ZM319.246 119.232V148.535H309.479V60.6274H319.246V70.3949H324.13V80.1624H319.246V109.465H324.13V119.232H319.246ZM392.543 119.232V104.581H387.659V89.9299H382.775V75.2786H377.892V60.6274H387.659V75.2786H392.543V89.9299H397.427V104.581H402.311V119.232H412.078V104.581H416.962V89.9299H421.846V75.2786H426.729V60.6274H436.497V75.2786H431.613V89.9299H426.729V104.581H421.846V119.232H416.962V129H412.078V138.768H407.194V143.651H402.311V148.535H382.775V138.768H402.311V129H397.427V119.232H392.543ZM446.293 129V114.349H451.177V109.465H456.061V104.581H460.945V99.6974H465.829V89.9299H460.945V85.0462H456.061V80.1624H451.177V75.2786H446.293V60.6274H456.061V70.3949H460.945V75.2786H465.829V80.1624H470.712V89.9299H475.596V80.1624H480.48V75.2786H485.364V70.3949H490.247V60.6274H500.015V75.2786H495.131V80.1624H490.247V85.0462H485.364V89.9299H480.48V99.6974H485.364V104.581H490.247V109.465H495.131V114.349H500.015V129H490.247V119.232H485.364V109.465H475.596V99.6974H470.712V109.465H460.945V119.232H456.061V129H446.293ZM509.8 129V114.349H524.452V129H509.8ZM544.042 129V70.3949H534.274V60.6274H544.042V45.9761H548.926V41.0923H553.809V36.2085H573.345V45.9761H553.809V60.6274H573.345V70.3949H553.809V129H544.042ZM587.981 119.232V60.6274H597.748V114.349H602.632V119.232H622.167V124.116H617.283V129H597.748V124.116H592.865V119.232H587.981ZM627.051 129V119.232H622.167V114.349H627.051V60.6274H636.818V129H627.051ZM656.383 129V60.6274H666.15V70.3949H671.034V75.2786H666.15V129H656.383ZM700.336 129V75.2786H695.453V70.3949H671.034V65.5111H675.918V60.6274H700.336V65.5111H705.22V70.3949H710.104V129H700.336Z" fill="#0A0A0A"/>
</svg>
