<svg width="402" height="106" viewBox="0 0 402 106" fill="none" xmlns="http://www.w3.org/2000/svg">
<g clip-path="url(#clip0_83_419)">
<path d="M49.6596 1.00838C78.3779 -0.835619 103.158 20.9439 105.013 49.6614C106.87 78.3791 85.1001 103.167 56.3831 105.035C27.6491 106.905 2.8429 85.1199 0.985898 56.3851C-0.871352 27.6501 20.9239 2.85338 49.6596 1.00838Z" fill="#A8DF49"/>
<path d="M58.4871 57.571C60.2301 57.5147 62.0504 57.5785 63.5131 58.6127C68.3599 62.0395 68.9354 69.9385 65.7484 74.6557C64.3066 76.7892 62.9494 77.487 60.5606 77.9547C58.5321 78.08 56.7641 78.0957 55.0356 76.7885C48.9029 72.1497 49.9741 58.851 58.4871 57.571Z" fill="black"/>
<path d="M56.9742 59.7821C58.6167 59.7214 60.4217 59.7754 62.0769 59.7904C66.7812 63.7454 67.1502 72.0761 61.9097 75.7291C59.5812 75.8899 56.6132 76.3336 55.1082 74.2214C51.8354 69.6276 52.9234 63.3314 56.9742 59.7821Z" fill="#A8DF49"/>
<path d="M36.9148 23.7201C42.192 23.3079 41.4715 26.9871 41.4388 30.9099C43.3805 30.9264 51.303 31.1364 48.1908 35.8981C47.0835 37.5921 43.4458 37.4694 41.4545 37.4696C41.4538 39.0989 41.6783 41.6431 41.1095 43.0879C40.803 43.8664 40.1228 43.9649 39.3468 44.2799C39.1713 44.2876 38.9958 44.2941 38.8203 44.2994C34.2188 44.4341 35.129 40.8061 35.1828 37.3169C33.3403 37.3871 31.3438 37.2686 29.4898 37.1989C28.3598 35.7784 27.0888 33.4926 28.8678 31.9541C30.6163 30.4424 33.0308 30.7919 35.1728 30.9446C35.1293 27.9824 34.607 25.9019 36.9148 23.7201Z" fill="black"/>
<path d="M78.6875 24.2537C83.5297 23.9059 83.2365 27.5279 82.7165 31.2239C84.4907 31.2636 91.2352 31.3302 90.0395 35.3914C89.2977 37.9097 85.1585 37.7809 82.8145 37.7539C83.0677 40.0789 83.4207 42.8509 81.4907 44.4002C75.9185 45.1354 76.764 42.0237 76.7737 37.6239C74.3837 37.7552 67.2477 37.5979 70.4987 32.6232C71.5345 31.0382 74.9307 31.2127 76.8025 31.2562C76.726 28.5049 76.1132 25.8809 78.6875 24.2537Z" fill="black"/>
</g>
<path d="M167.46 53.586V45.948H164.914V38.31H159.822V45.948H157.276V53.586H154.73V56.132H170.006V53.586H167.46ZM144.546 76.5V68.862H147.092V61.224H149.638V53.586H152.184V45.948H154.73V38.31H157.276V33.218H159.822V28.126H164.914V33.218H167.46V38.31H170.006V45.948H172.552V53.586H175.098V61.224H177.644V68.862H180.19V76.5H175.098V68.862H172.552V61.224H152.184V68.862H149.638V76.5H144.546ZM195.493 73.954V71.408H208.223V68.862H210.769V66.316H213.315V51.04H210.769V48.494H208.223V45.948H195.493V43.402H198.039V40.856H210.769V43.402H213.315V45.948H215.861V48.494H218.407V68.862H215.861V71.408H213.315V73.954H210.769V76.5H198.039V73.954H195.493ZM192.947 71.408V86.684H187.855V40.856H192.947V45.948H195.493V51.04H192.947V66.316H195.493V71.408H192.947ZM231.158 71.408V63.77H228.612V56.132H226.066V48.494H223.52V40.856H228.612V48.494H231.158V56.132H233.704V63.77H236.25V71.408H241.342V63.77H243.888V56.132H246.434V48.494H248.98V40.856H254.072V48.494H251.526V56.132H248.98V63.77H246.434V71.408H243.888V76.5H241.342V81.592H238.796V84.138H236.25V86.684H226.066V81.592H236.25V76.5H233.704V71.408H231.158ZM259.179 76.5V68.862H261.725V66.316H264.271V63.77H266.817V61.224H269.363V56.132H266.817V53.586H264.271V51.04H261.725V48.494H259.179V40.856H264.271V45.948H266.817V48.494H269.363V51.04H271.909V56.132H274.455V51.04H277.001V48.494H279.547V45.948H282.093V40.856H287.185V48.494H284.639V51.04H282.093V53.586H279.547V56.132H277.001V61.224H279.547V63.77H282.093V66.316H284.639V68.862H287.185V76.5H282.093V71.408H279.547V66.316H274.455V61.224H271.909V66.316H266.817V71.408H264.271V76.5H259.179ZM292.286 76.5V68.862H299.924V76.5H292.286ZM310.137 76.5V45.948H305.045V40.856H310.137V33.218H312.683V30.672H315.229V28.126H325.413V33.218H315.229V40.856H325.413V45.948H315.229V76.5H310.137ZM333.043 71.408V40.856H338.135V68.862H340.681V71.408H350.865V73.954H348.319V76.5H338.135V73.954H335.589V71.408H333.043ZM353.411 76.5V71.408H350.865V68.862H353.411V40.856H358.503V76.5H353.411ZM368.702 76.5V40.856H373.794V45.948H376.34V48.494H373.794V76.5H368.702ZM391.616 76.5V48.494H389.07V45.948H376.34V43.402H378.886V40.856H391.616V43.402H394.162V45.948H396.708V76.5H391.616Z" fill="white"/>
<defs>
<clipPath id="clip0_83_419">
<rect width="106" height="106" fill="white"/>
</clipPath>
</defs>
</svg>
