<svg width="120" height="30" viewBox="0 0 120 30" fill="none" xmlns="http://www.w3.org/2000/svg">
<g clip-path="url(#clip0_83_444)">
<g clip-path="url(#clip1_83_444)">
<path d="M11.2437 3.22877C17.746 2.81126 23.3565 7.74247 23.7765 14.2445C24.197 20.7467 19.268 26.3591 12.766 26.7821C6.2602 27.2053 0.643693 22.2729 0.223241 15.7669C-0.197269 9.26087 4.7375 3.64651 11.2437 3.22877Z" fill="#A8DF49"/>
<path d="M13.2425 16.0355C13.6372 16.0227 14.0493 16.0372 14.3805 16.2713C15.4779 17.0472 15.6082 18.8357 14.8866 19.9037C14.5602 20.3868 14.2528 20.5448 13.712 20.6507C13.2527 20.679 12.8524 20.6826 12.4611 20.3866C11.0725 19.3363 11.3151 16.3253 13.2425 16.0355Z" fill="black"/>
<path d="M12.8995 16.5357C13.2714 16.5219 13.6801 16.5342 14.0549 16.5376C15.12 17.433 15.2035 19.3192 14.017 20.1463C13.4898 20.1827 12.8178 20.2832 12.477 19.8049C11.736 18.7649 11.9824 17.3393 12.8995 16.5357Z" fill="#A8DF49"/>
<path d="M8.35813 8.37045C9.55298 8.27711 9.38985 9.11015 9.38243 9.99832C9.82208 10.0021 11.6158 10.0496 10.9112 11.1277C10.6605 11.5113 9.83685 11.4835 9.386 11.4835C9.38583 11.8524 9.43666 12.4285 9.30789 12.7556C9.23849 12.9319 9.08447 12.9542 8.90878 13.0255C8.86904 13.0272 8.8293 13.0287 8.78957 13.0299C7.74772 13.0604 7.95381 12.239 7.96598 11.449C7.54881 11.4649 7.09677 11.438 6.677 11.4222C6.42115 11.1006 6.13338 10.5831 6.53617 10.2348C6.93206 9.89247 7.47874 9.9716 7.96372 10.0062C7.95387 9.33549 7.83562 8.86443 8.35813 8.37045Z" fill="black"/>
<path d="M17.8159 8.49158C18.9122 8.41284 18.8458 9.23292 18.7281 10.0697C19.1298 10.0787 20.6569 10.0938 20.3861 11.0133C20.2182 11.5835 19.281 11.5544 18.7503 11.5482C18.8076 12.0747 18.8876 12.7023 18.4506 13.0531C17.1889 13.2195 17.3804 12.515 17.3826 11.5188C16.8414 11.5485 15.2257 11.5129 15.9618 10.3866C16.1963 10.0277 16.9653 10.0672 17.3891 10.0771C17.3718 9.45413 17.233 8.86001 17.8159 8.49158Z" fill="black"/>
</g>
<path d="M38.7004 15.134V12.512H37.8264V9.89H36.0784V12.512H35.2044V15.134H34.3304V16.008H39.5744V15.134H38.7004ZM30.8344 23V20.378H31.7084V17.756H32.5824V15.134H33.4564V12.512H34.3304V9.89H35.2044V8.142H36.0784V6.394H37.8264V8.142H38.7004V9.89H39.5744V12.512H40.4484V15.134H41.3224V17.756H42.1964V20.378H43.0705V23H41.3224V20.378H40.4484V17.756H33.4564V20.378H32.5824V23H30.8344ZM48.3236 22.126V21.252H52.6936V20.378H53.5676V19.504H54.4416V14.26H53.5676V13.386H52.6936V12.512H48.3236V11.638H49.1976V10.764H53.5676V11.638H54.4416V12.512H55.3156V13.386H56.1896V20.378H55.3156V21.252H54.4416V22.126H53.5676V23H49.1976V22.126H48.3236ZM47.4496 21.252V26.496H45.7016V10.764H47.4496V12.512H48.3236V14.26H47.4496V19.504H48.3236V21.252H47.4496ZM60.5668 21.252V18.63H59.6928V16.008H58.8188V13.386H57.9448V10.764H59.6928V13.386H60.5668V16.008H61.4408V18.63H62.3148V21.252H64.0628V18.63H64.9368V16.008H65.8108V13.386H66.6848V10.764H68.4328V13.386H67.5588V16.008H66.6848V18.63H65.8108V21.252H64.9368V23H64.0628V24.748H63.1888V25.622H62.3148V26.496H58.8188V24.748H62.3148V23H61.4408V21.252H60.5668ZM70.186 23V20.378H71.06V19.504H71.934V18.63H72.808V17.756H73.682V16.008H72.808V15.134H71.934V14.26H71.06V13.386H70.186V10.764H71.934V12.512H72.808V13.386H73.682V14.26H74.556V16.008H75.43V14.26H76.304V13.386H77.178V12.512H78.052V10.764H79.8V13.386H78.926V14.26H78.052V15.134H77.178V16.008H76.304V17.756H77.178V18.63H78.052V19.504H78.926V20.378H79.8V23H78.052V21.252H77.178V19.504H75.43V17.756H74.556V19.504H72.808V21.252H71.934V23H70.186ZM81.5512 23V20.378H84.1732V23H81.5512ZM87.6791 23V12.512H85.9311V10.764H87.6791V8.142H88.5531V7.268H89.4271V6.394H92.9231V8.142H89.4271V10.764H92.9231V12.512H89.4271V23H87.6791ZM95.5424 21.252V10.764H97.2904V20.378H98.1644V21.252H101.66V22.126H100.786V23H97.2904V22.126H96.4164V21.252H95.5424ZM102.534 23V21.252H101.66V20.378H102.534V10.764H104.282V23H102.534ZM107.784 23V10.764H109.532V12.512H110.406V13.386H109.532V23H107.784ZM115.65 23V13.386H114.776V12.512H110.406V11.638H111.28V10.764H115.65V11.638H116.524V12.512H117.398V23H115.65Z" fill="#0A0A0A"/>
</g>
<defs>
<clipPath id="clip0_83_444">
<rect width="119.96" height="30" fill="white"/>
</clipPath>
<clipPath id="clip1_83_444">
<rect width="24" height="24" fill="white" transform="translate(0 3)"/>
</clipPath>
</defs>
</svg>
